<svg version="1.1" id="Layer_1" xmlns="http://www.w3.org/2000/svg" xmlns:xlink="http://www.w3.org/1999/xlink" x="0px" y="0px"
	 width="50" viewBox="0 0 500 500" enable-background="new 0 0 500 500" xml:space="preserve">
<path fill="#000000" opacity="0" stroke="none" 
	d="
M290.000000,501.000000 
	C193.333359,501.000000 97.166710,501.000000 1.000051,501.000000 
	C1.000034,334.333405 1.000034,167.666794 1.000017,1.000141 
	C167.666565,1.000094 334.333130,1.000094 500.999756,1.000047 
	C500.999847,167.666519 500.999847,334.333038 500.999939,500.999786 
	C430.833344,501.000000 360.666656,501.000000 290.000000,501.000000 
M66.992203,256.987030 
	C67.433807,275.065460 71.890686,292.265961 77.915619,309.211639 
	C85.687683,331.071259 97.439346,350.630249 112.619102,367.923553 
	C129.967499,387.687408 150.749603,403.128021 174.869980,414.065918 
	C194.943420,423.168671 215.986847,428.166687 237.789505,429.883392 
	C252.952301,431.077301 268.209503,429.947144 283.042786,426.782623 
	C301.728363,422.796234 319.696442,416.540955 336.486145,406.994720 
	C360.740143,393.204437 380.825592,374.834259 396.859039,352.243591 
	C416.911682,323.990082 427.845642,292.095245 430.827850,257.704102 
	C432.267670,241.099960 431.325134,224.307770 427.845856,207.954803 
	C423.501556,187.535995 416.622192,167.959686 406.032074,149.773315 
	C394.995667,130.820541 381.385651,114.161957 364.597382,99.975136 
	C350.405609,87.982460 334.888428,78.401505 317.739899,71.273186 
	C290.778381,60.065815 262.787079,55.298721 233.745422,58.144001 
	C222.494064,59.246319 211.222794,61.269188 200.269180,64.076683 
	C166.909729,72.626976 139.053543,90.282074 115.643799,115.586014 
	C101.618584,130.746094 90.748734,147.763977 82.364349,166.389221 
	C73.154152,186.848938 67.409035,208.291977 66.156921,231.322403 
	C66.108574,236.768005 65.951393,242.215698 66.056793,247.658325 
	C66.111267,250.471344 66.631798,253.275360 66.992203,256.987030 
z"/>
<path fill="#FE7BB1" opacity="1.000000" stroke="none" 
	d="
M66.941223,230.917465 
	C67.409035,208.291977 73.154152,186.848938 82.364349,166.389221 
	C90.748734,147.763977 101.618584,130.746094 115.643799,115.586014 
	C139.053543,90.282074 166.909729,72.626976 200.269180,64.076683 
	C211.222794,61.269188 222.494064,59.246319 233.745422,58.144001 
	C262.787079,55.298721 290.778381,60.065815 317.739899,71.273186 
	C334.888428,78.401505 350.405609,87.982460 364.597382,99.975136 
	C381.385651,114.161957 394.995667,130.820541 406.032074,149.773315 
	C416.622192,167.959686 423.501556,187.535995 427.845856,207.954803 
	C431.325134,224.307770 432.267670,241.099960 430.827850,257.704102 
	C427.845642,292.095245 416.911682,323.990082 396.859039,352.243591 
	C380.825592,374.834259 360.740143,393.204437 336.486145,406.994720 
	C319.696442,416.540955 301.728363,422.796234 283.042786,426.782623 
	C268.209503,429.947144 252.952301,431.077301 237.789505,429.883392 
	C215.986847,428.166687 194.943420,423.168671 174.869980,414.065918 
	C150.749603,403.128021 129.967499,387.687408 112.619102,367.923553 
	C97.439346,350.630249 85.687683,331.071259 77.915619,309.211639 
	C71.890686,292.265961 67.433807,275.065460 67.010330,256.063629 
	C66.999390,247.065979 66.970306,238.991730 66.941223,230.917465 
M134.002762,107.483948 
	C132.918686,108.520538 131.829468,109.551811 130.751297,110.594498 
	C85.426735,154.427368 66.894440,207.952057 75.347809,270.081879 
	C81.508774,315.363159 102.691284,353.345551 138.115723,382.556152 
	C178.156616,415.573425 224.395554,429.004486 275.622803,420.580475 
	C333.891846,410.998505 376.705811,378.490112 403.944061,326.412170 
	C423.043121,289.895844 428.494904,250.709274 420.896393,210.078003 
	C412.923492,167.444901 392.627289,131.524979 359.066101,104.015678 
	C319.474976,71.563812 273.899811,58.550713 222.923950,65.912437 
	C189.365051,70.758888 160.114136,84.968346 134.002762,107.483948 
z"/>
<path fill="#FED3E5" opacity="1.000000" stroke="none" 
	d="
M66.549072,231.119934 
	C66.970306,238.991730 66.999390,247.065979 66.985115,255.611847 
	C66.631798,253.275360 66.111267,250.471344 66.056793,247.658325 
	C65.951393,242.215698 66.108574,236.768005 66.549072,231.119934 
z"/>
<path fill="#FFE3FA" opacity="1.000000" stroke="none" 
	d="
M134.262527,107.243378 
	C160.114136,84.968346 189.365051,70.758888 222.923950,65.912437 
	C273.899811,58.550713 319.474976,71.563812 359.066101,104.015678 
	C392.627289,131.524979 412.923492,167.444901 420.896393,210.078003 
	C428.494904,250.709274 423.043121,289.895844 403.944061,326.412170 
	C376.705811,378.490112 333.891846,410.998505 275.622803,420.580475 
	C224.395554,429.004486 178.156616,415.573425 138.115723,382.556152 
	C102.691284,353.345551 81.508774,315.363159 75.347809,270.081879 
	C66.894440,207.952057 85.426735,154.427368 130.751297,110.594498 
	C131.829468,109.551811 132.918686,108.520538 134.262527,107.243378 
M304.811615,161.799606 
	C304.524628,159.486969 304.540985,157.085587 303.895020,154.877975 
	C301.765106,147.599243 300.110504,140.053268 296.903290,133.256424 
	C294.081635,127.276672 288.347626,127.418755 284.772369,133.021713 
	C282.667480,136.320343 281.075745,140.126114 280.078278,143.920670 
	C275.703735,160.561493 275.124359,177.518372 277.684143,194.441025 
	C278.812256,201.898987 280.828613,209.445267 283.846985,216.335876 
	C287.289032,224.193649 293.792603,224.055130 297.873352,216.558578 
	C299.677032,213.245163 300.977386,209.565811 301.942169,205.903976 
	C305.677948,191.724808 305.603577,177.246704 304.811615,161.799606 
M189.093460,153.677414 
	C186.492706,170.777359 186.320129,187.865341 190.075775,204.805450 
	C191.140411,209.607635 192.807419,214.447830 195.145203,218.756790 
	C198.836685,225.560883 204.503387,225.430710 208.526688,218.748932 
	C210.048355,216.221817 211.176895,213.376770 212.026093,210.539398 
	C216.783585,194.643738 217.115433,178.334946 215.410553,162.042740 
	C214.605972,154.353912 212.481995,146.740387 210.304428,139.282959 
	C209.117111,135.216812 206.973236,130.755447 201.685211,130.839798 
	C196.451233,130.923309 194.646194,135.466309 193.113541,139.454269 
	C191.454224,143.771835 190.493301,148.357819 189.093460,153.677414 
M101.461006,268.112762 
	C121.481964,271.895081 141.471390,272.017975 161.332428,267.187256 
	C165.369186,266.205414 170.934723,265.466156 170.825043,260.059570 
	C170.717529,254.760208 165.160049,254.049469 161.123322,253.067291 
	C142.427444,248.518417 123.528282,248.718933 104.649460,251.678329 
	C100.128738,252.387009 95.573647,253.860626 91.448051,255.843262 
	C86.847122,258.054321 86.884872,262.028442 91.350319,264.525055 
	C94.200302,266.118469 97.524704,266.863373 101.461006,268.112762 
M341.588226,268.007996 
	C352.861450,268.306854 364.173065,269.288330 375.394043,268.657562 
	C382.524567,268.256714 389.740753,266.054077 396.504181,263.543304 
	C401.555573,261.668091 401.334747,257.402161 396.579834,254.738983 
	C394.435547,253.537964 392.046600,252.655167 389.664459,252.017120 
	C376.980011,248.619766 363.978210,248.136337 351.057190,249.374084 
	C343.061554,250.140015 335.180420,252.479721 327.380432,254.600418 
	C325.755646,255.042160 323.681488,257.637543 323.693787,259.225861 
	C323.706146,260.819946 325.761597,263.135651 327.457489,263.834290 
	C331.717773,265.589294 336.280609,266.609894 341.588226,268.007996 
M244.256363,251.518906 
	C244.358871,254.940857 244.316147,258.377930 244.669464,261.773773 
	C244.754211,262.588379 246.132233,263.815186 246.957825,263.850067 
	C247.760773,263.883972 249.286469,262.679016 249.338638,261.936768 
	C249.599075,258.232147 250.123352,254.350266 249.299683,250.823898 
	C248.569244,247.696594 246.215469,247.765427 244.256363,251.518906 
z"/>
<path fill="#050505" opacity="1.000000" stroke="none" 
	d="
M304.846466,162.270813 
	C305.603577,177.246704 305.677948,191.724808 301.942169,205.903976 
	C300.977386,209.565811 299.677032,213.245163 297.873352,216.558578 
	C293.792603,224.055130 287.289032,224.193649 283.846985,216.335876 
	C280.828613,209.445267 278.812256,201.898987 277.684143,194.441025 
	C275.124359,177.518372 275.703735,160.561493 280.078278,143.920670 
	C281.075745,140.126114 282.667480,136.320343 284.772369,133.021713 
	C288.347626,127.418755 294.081635,127.276672 296.903290,133.256424 
	C300.110504,140.053268 301.765106,147.599243 303.895020,154.877975 
	C304.540985,157.085587 304.524628,159.486969 304.846466,162.270813 
M290.242065,168.800400 
	C290.394318,162.867203 291.059998,156.833145 287.300934,151.186356 
	C282.467590,157.832443 282.604919,172.822052 287.985352,179.047134 
	C288.820251,175.446548 289.492676,172.546753 290.242065,168.800400 
z"/>
<path fill="#050405" opacity="1.000000" stroke="none" 
	d="
M189.160629,153.252075 
	C190.493301,148.357819 191.454224,143.771835 193.113541,139.454269 
	C194.646194,135.466309 196.451233,130.923309 201.685211,130.839798 
	C206.973236,130.755447 209.117111,135.216812 210.304428,139.282959 
	C212.481995,146.740387 214.605972,154.353912 215.410553,162.042740 
	C217.115433,178.334946 216.783585,194.643738 212.026093,210.539398 
	C211.176895,213.376770 210.048355,216.221817 208.526688,218.748932 
	C204.503387,225.430710 198.836685,225.560883 195.145203,218.756790 
	C192.807419,214.447830 191.140411,209.607635 190.075775,204.805450 
	C186.320129,187.865341 186.492706,170.777359 189.160629,153.252075 
M204.282990,178.950317 
	C205.146744,178.872162 206.483093,179.123077 206.801758,178.665390 
	C210.307587,173.630234 209.456787,158.081345 204.968613,152.389206 
	C201.255234,161.250351 201.199692,169.651718 204.282990,178.950317 
z"/>
<path fill="#ED048E" opacity="1.000000" stroke="none" 
	d="
M101.048706,268.050720 
	C97.524704,266.863373 94.200302,266.118469 91.350319,264.525055 
	C86.884872,262.028442 86.847122,258.054321 91.448051,255.843262 
	C95.573647,253.860626 100.128738,252.387009 104.649460,251.678329 
	C123.528282,248.718933 142.427444,248.518417 161.123322,253.067291 
	C165.160049,254.049469 170.717529,254.760208 170.825043,260.059570 
	C170.934723,265.466156 165.369186,266.205414 161.332428,267.187256 
	C141.471390,272.017975 121.481964,271.895081 101.048706,268.050720 
z"/>
<path fill="#ED048E" opacity="1.000000" stroke="none" 
	d="
M341.155151,267.966492 
	C336.280609,266.609894 331.717773,265.589294 327.457489,263.834290 
	C325.761597,263.135651 323.706146,260.819946 323.693787,259.225861 
	C323.681488,257.637543 325.755646,255.042160 327.380432,254.600418 
	C335.180420,252.479721 343.061554,250.140015 351.057190,249.374084 
	C363.978210,248.136337 376.980011,248.619766 389.664459,252.017120 
	C392.046600,252.655167 394.435547,253.537964 396.579834,254.738983 
	C401.334747,257.402161 401.555573,261.668091 396.504181,263.543304 
	C389.740753,266.054077 382.524567,268.256714 375.394043,268.657562 
	C364.173065,269.288330 352.861450,268.306854 341.155151,267.966492 
z"/>
<path fill="#FE0809" opacity="1.000000" stroke="none" 
	d="
M244.435272,251.168808 
	C246.215469,247.765427 248.569244,247.696594 249.299683,250.823898 
	C250.123352,254.350266 249.599075,258.232147 249.338638,261.936768 
	C249.286469,262.679016 247.760773,263.883972 246.957825,263.850067 
	C246.132233,263.815186 244.754211,262.588379 244.669464,261.773773 
	C244.316147,258.377930 244.358871,254.940857 244.435272,251.168808 
z"/>
<path fill="#F6F6F6" opacity="1.000000" stroke="none" 
	d="
M290.203552,169.223694 
	C289.492676,172.546753 288.820251,175.446548 287.985352,179.047134 
	C282.604919,172.822052 282.467590,157.832443 287.300934,151.186356 
	C291.059998,156.833145 290.394318,162.867203 290.203552,169.223694 
z"/>
<path fill="#F2F2F2" opacity="1.000000" stroke="none" 
	d="
M204.119888,178.590454 
	C201.199692,169.651718 201.255234,161.250351 204.968613,152.389206 
	C209.456787,158.081345 210.307587,173.630234 206.801758,178.665390 
	C206.483093,179.123077 205.146744,178.872162 204.119888,178.590454 
z"/>
</svg>